<svg width="16" height="16" viewBox="0 0 16 16" fill="none" xmlns="http://www.w3.org/2000/svg">
<g clip-path="url(#clip0_4_6746)">
<path d="M5.75318 2.74671C5.64979 2.68579 5.53198 2.65363 5.41197 2.65356L3.2857 3.00006C2.41643 3.00006 1.7887 3.80742 2.06657 4.63092C2.63745 6.32234 3.72403 8.94793 5.38821 10.6121C7.0524 12.2759 9.67802 13.3628 11.3695 13.9334C12.1926 14.2116 13 13.5835 13 12.7146L13.2018 10.6019C13.2019 10.482 13.1699 10.3642 13.1091 10.2608C13.0484 10.1574 12.9611 10.0722 12.8564 10.0138L11.3695 9.1873C11.2738 9.13414 11.1667 9.1051 11.0573 9.10269C10.9479 9.10029 10.8396 9.1246 10.7417 9.17351L9.63885 9.68755C9.63885 9.68755 8.46144 9.46149 7.5 8.50006C6.53822 7.53863 6.30846 6.35719 6.30846 6.35719L6.83663 5.10995C6.8856 5.01211 6.90997 4.90381 6.90762 4.79443C6.90528 4.68504 6.87629 4.57788 6.82318 4.48223L6 3.00006C5.9418 2.89511 5.85658 2.80764 5.75318 2.74671Z" stroke="#FAA61A" stroke-width="2" stroke-linejoin="round"/>
<path d="M10 6L14 2M10 6H14M10 6V2" stroke="#FAA61A" stroke-width="2" stroke-linecap="round" stroke-linejoin="round"/>
</g>
<defs>
<clipPath id="clip0_4_6746">
<rect width="16" height="16" fill="white"/>
</clipPath>
</defs>
</svg>
