<svg width="14" height="15" viewBox="0 0 14 15" fill="none" xmlns="http://www.w3.org/2000/svg">
<path fill-rule="evenodd" clip-rule="evenodd" d="M10.9874 10.4921L13.7388 13.2271C14.0666 13.5529 14.0668 14.0834 13.7391 14.4094C13.414 14.7328 12.8887 14.733 12.5634 14.4097L9.79338 11.6571C8.64591 12.4936 7.23812 12.8943 5.82211 12.7875C4.40611 12.6807 3.07438 12.0733 2.06538 11.0741C1.51372 10.527 1.07567 9.87622 0.776425 9.15922C0.477181 8.44221 0.32265 7.67311 0.321721 6.89617C0.320791 6.11922 0.473482 5.34976 0.77101 4.63204C1.06854 3.91432 1.50503 3.2625 2.05538 2.71409C3.17591 1.60797 4.68764 0.988668 6.26215 0.990728C7.83665 0.992787 9.34676 1.61604 10.4644 2.72509C11.4811 3.73475 12.095 5.0803 12.1913 6.50992C12.2875 7.93953 11.8595 9.35524 10.9874 10.4921ZM3.21638 3.86909C2.81795 4.26618 2.50194 4.73812 2.28653 5.25777C2.07113 5.77742 1.96057 6.33452 1.96122 6.89704C1.96187 7.45957 2.07372 8.01641 2.29033 8.53556C2.50693 9.05471 2.82403 9.52592 3.22338 9.92209C4.0328 10.725 5.12634 11.1761 6.26644 11.1775C7.40655 11.1788 8.50113 10.7302 9.31238 9.92909C9.71094 9.53206 10.0271 9.06014 10.2425 8.54049C10.458 8.02083 10.5686 7.46369 10.568 6.90113C10.5673 6.33857 10.4554 5.78169 10.2387 5.26253C10.0221 4.74338 9.70486 4.27219 9.30538 3.87609C8.49585 3.0734 7.40235 2.62244 6.26232 2.62113C5.12229 2.61982 4.02777 3.06826 3.21638 3.86909Z" fill="white"/>
</svg>
